<?xml version="1.0" ?><svg viewBox="0 0 64 64" xmlns="http://www.w3.org/2000/svg"><title/><g data-name="Layer 3" id="Layer_3"><path d="M47.81,31.5h-.12a17,17,0,1,0-31.38,0h-.12a1.69,1.69,0,0,0-1.69,1.69V39a4.53,4.53,0,0,0,3.87,4.45A10.57,10.57,0,0,0,23.66,49,30.56,30.56,0,0,0,27,50.27a13.66,13.66,0,0,0,1.52.41v2a1.14,1.14,0,0,1-1.06,1.13l-7,.47a4.27,4.27,0,0,0-4,4.24v4h31v-4a4.27,4.27,0,0,0-4-4.24l-7-.47a1.14,1.14,0,0,1-1.06-1.13v-2A13.66,13.66,0,0,0,37,50.27,30.56,30.56,0,0,0,40.34,49a10.57,10.57,0,0,0,5.29-5.52A4.53,4.53,0,0,0,49.5,39v-5.8A1.69,1.69,0,0,0,47.81,31.5ZM44.5,37.86a11.42,11.42,0,0,1-5.35,8.62A8,8,0,0,0,32,41.56a8,8,0,0,0-7.15,4.92,11.42,11.42,0,0,1-5.35-8.62L19,32l1.84-6.13A73.18,73.18,0,0,0,32,26.71a73.18,73.18,0,0,0,11.16-.84L45,32ZM32,48.35a17.4,17.4,0,0,1-3.85-.52,1.1,1.1,0,0,1-.71-1.56,7.15,7.15,0,0,1,1.84-2.37,4.65,4.65,0,0,1,5.44,0,7.15,7.15,0,0,1,1.84,2.37,1.1,1.1,0,0,1-.71,1.56A17.4,17.4,0,0,1,32,48.35ZM15.5,39v-5.8a.69.69,0,0,1,.69-.69h.44L18,37.9h0l0,.75.07,1.72a10.09,10.09,0,0,0,.46,2.06A3.51,3.51,0,0,1,15.5,39Zm21,15.81,1.43.1c-.3.82-1.53,3.25-5.92,3.32s-5.64-2.47-5.92-3.32l1.43-.1a2.14,2.14,0,0,0,2-2.13V50.88a15.73,15.73,0,0,0,5,0v1.79A2.14,2.14,0,0,0,36.49,54.8ZM48.5,39a3.51,3.51,0,0,1-3,3.44,10.09,10.09,0,0,0,.46-2.06L46,38.65l0-.75h0l1.37-5.4h.44a.69.69,0,0,1,.69.69Z"/><path d="M26,35a1,1,0,0,0-1,1v3a1,1,0,0,0,2,0V36A1,1,0,0,0,26,35Z"/><path d="M38,35a1,1,0,0,0-1,1v3a1,1,0,0,0,2,0V36A1,1,0,0,0,38,35Z"/></g></svg>