<?xml version="1.0" ?><svg enable-background="new 0 0 200 200" id="Layer_1" version="1.1" viewBox="0 0 200 200" xml:space="preserve" xmlns="http://www.w3.org/2000/svg" xmlns:xlink="http://www.w3.org/1999/xlink"><g><path d="M181.654,109.733l-14.462-7.758l-10.657-21.631c-0.589-1.196-1.807-1.953-3.14-1.953h-10.268V60.284h10.268   c1.933,0,3.5-1.567,3.5-3.5V48.88c0-1.29-0.709-2.475-1.846-3.084l-14.462-7.758L129.93,16.407   c-0.589-1.196-1.807-1.953-3.14-1.953H70.977c-1.333,0-2.55,0.757-3.14,1.953L56.779,38.852l-12.945,6.945   c-1.136,0.609-1.845,1.794-1.845,3.084v7.903c0,1.933,1.567,3.5,3.5,3.5h9.151v18.107h-9.151c-1.333,0-2.55,0.757-3.14,1.953   l-11.058,22.445l-12.945,6.944c-1.137,0.61-1.846,1.795-1.846,3.084v7.903c0,1.933,1.567,3.5,3.5,3.5h23.756v54.326H20   c-1.933,0-3.5,1.567-3.5,3.5s1.567,3.5,3.5,3.5h27.256h11.907h22.493h12.577h9.302h12.578h24.725h11.907h8.651   c1.933,0,3.5-1.567,3.5-3.5s-1.567-3.5-3.5-3.5h-5.151v-54.326H180c1.933,0,3.5-1.567,3.5-3.5v-7.903   C183.5,111.528,182.791,110.343,181.654,109.733z M73.154,21.454h51.459l7.714,15.657H65.44L73.154,21.454z M48.988,53.284v-2.309   l12.794-6.864h75.318l12.795,6.864v2.309h-10.268H58.14H48.988z M136.128,60.284v18.107H61.64V60.284H136.128z M47.666,85.391   H58.14h81.488h11.59l7.714,15.658H39.952L47.666,85.391z M55.663,178.546h-4.907v-54.326h4.907V178.546z M100.035,178.546h-2.302   v-13.837h2.302V178.546z M112.612,178.546h-5.578v-17.337c0-1.933-1.567-3.5-3.5-3.5h-9.302c-1.933,0-3.5,1.567-3.5,3.5v17.337   h-5.577v-27.457h27.457V178.546z M137.337,178.546h-17.725v-30.957c0-1.933-1.567-3.5-3.5-3.5H81.655c-1.933,0-3.5,1.567-3.5,3.5   v30.957H62.663v-54.326h74.675V178.546z M149.244,178.546h-4.907v-54.326h4.907V178.546z M176.5,117.221h-23.756h-11.907H59.163   H47.256H23.5v-2.309l12.794-6.863h127.411l12.794,6.863V117.221z" fill="#1D1D1B"/><path d="M180,178.546h-6.326c-1.933,0-3.5,1.567-3.5,3.5s1.567,3.5,3.5,3.5H180c1.933,0,3.5-1.567,3.5-3.5   S181.933,178.546,180,178.546z" fill="#1D1D1B"/><path d="M71.791,72.837h5.954c1.933,0,3.5-1.567,3.5-3.5s-1.567-3.5-3.5-3.5h-5.954c-1.933,0-3.5,1.567-3.5,3.5   S69.857,72.837,71.791,72.837z" fill="#1D1D1B"/><path d="M95.907,72.837h5.954c1.933,0,3.5-1.567,3.5-3.5s-1.567-3.5-3.5-3.5h-5.954c-1.933,0-3.5,1.567-3.5,3.5   S93.974,72.837,95.907,72.837z" fill="#1D1D1B"/><path d="M120.023,72.837h5.954c1.933,0,3.5-1.567,3.5-3.5s-1.567-3.5-3.5-3.5h-5.954c-1.933,0-3.5,1.567-3.5,3.5   S118.09,72.837,120.023,72.837z" fill="#1D1D1B"/></g></svg>